<svg width="23" height="65" viewBox="0 0 23 65" fill="none" xmlns="http://www.w3.org/2000/svg">
<path d="M12.4998 1.97544L12.4752 0.475645L9.47561 0.524819L9.5002 2.02462L12.4998 1.97544ZM10.9569 64.0779C11.5522 64.654 12.5018 64.6385 13.0779 64.0432L22.4661 54.342C23.0422 53.7467 23.0266 52.7971 22.4313 52.221C21.836 51.6449 20.8864 51.6605 20.3103 52.2558L11.9652 60.879L3.342 52.5339C2.74669 51.9578 1.79707 51.9734 1.22097 52.5687C0.644862 53.164 0.660429 54.1136 1.25574 54.6897L10.9569 64.0779ZM9.5002 2.02462L10.5002 63.0246L13.4998 62.9754L12.4998 1.97544L9.5002 2.02462Z" fill="#EBEBEB"/>
</svg>
